<svg width="33" height="33" viewBox="0 0 33 33" fill="none" xmlns="http://www.w3.org/2000/svg">
<path d="M1 19.7586V1H19.7586L1 19.7586Z" fill="white" stroke="white"/>
<rect x="10.9312" y="8.72415" width="5.51724" height="5.51724" fill="white"/>
<rect x="8.72412" y="10.931" width="5.51724" height="5.51724" fill="white"/>
<rect x="8.72412" y="9.82758" width="3.31034" height="3.31034" fill="white"/>
<rect x="14.2415" y="14.2414" width="2.2069" height="2.2069" fill="white"/>
<rect x="19.7585" y="19.7586" width="2.2069" height="2.2069" fill="white"/>
<rect x="25.2759" y="25.2758" width="2.2069" height="2.2069" fill="white"/>
<rect x="30.7932" y="30.7931" width="2.2069" height="2.2069" fill="white"/>
<rect x="16.4482" y="14.2414" width="5.51724" height="5.51724" fill="white"/>
<rect x="14.2415" y="16.4483" width="5.51724" height="5.51724" fill="white"/>
<rect x="19.7585" y="21.9655" width="5.51724" height="5.51724" fill="white"/>
<rect x="25.2759" y="27.4828" width="5.51724" height="5.51724" fill="white"/>
<rect x="21.9656" y="19.7586" width="5.51724" height="5.51724" fill="white"/>
<rect x="27.4827" y="25.2758" width="5.51724" height="5.51724" fill="white"/>
</svg>
